<mxfile host="app.diagrams.net" modified="2021-12-16T12:54:19.812Z" agent="5.0 (Macintosh; Intel Mac OS X 10_15_7) AppleWebKit/537.36 (KHTML, like Gecko) Chrome/96.0.4664.93 Safari/537.36" etag="VM20HpK8R1TRuMr4jWu2" version="15.9.4" type="github" pages="2">
  <diagram id="MAwdSJTzHu8hkmkYIUFN" name="Intro">
    <mxGraphModel dx="1004" dy="1163" grid="0" gridSize="10" guides="1" tooltips="1" connect="1" arrows="1" fold="1" page="1" pageScale="1" pageWidth="1169" pageHeight="827" math="0" shadow="0">
      <root>
        <mxCell id="R0EhZH4kIw3I4G1bYQ5x-0" />
        <mxCell id="R0EhZH4kIw3I4G1bYQ5x-1" parent="R0EhZH4kIw3I4G1bYQ5x-0" />
        <mxCell id="pVFDlFmT5RPegFPA8o8f-0" value="&lt;h3&gt;&lt;b&gt;&lt;font style=&quot;font-size: 29px&quot;&gt;CSS&lt;/font&gt;&lt;/b&gt;&lt;/h3&gt;" style="rounded=0;whiteSpace=wrap;html=1;strokeWidth=2;" vertex="1" parent="R0EhZH4kIw3I4G1bYQ5x-1">
          <mxGeometry x="32" y="179" width="436" height="70" as="geometry" />
        </mxCell>
        <mxCell id="pVFDlFmT5RPegFPA8o8f-1" value="&lt;h3&gt;&lt;b&gt;&lt;font style=&quot;font-size: 29px&quot;&gt;HTML&lt;/font&gt;&lt;/b&gt;&lt;/h3&gt;" style="rounded=0;whiteSpace=wrap;html=1;strokeWidth=2;" vertex="1" parent="R0EhZH4kIw3I4G1bYQ5x-1">
          <mxGeometry x="535" y="179" width="427" height="70" as="geometry" />
        </mxCell>
        <mxCell id="pVFDlFmT5RPegFPA8o8f-3" value="" style="endArrow=classic;html=1;rounded=0;fontSize=20;strokeWidth=4;exitX=0.5;exitY=1;exitDx=0;exitDy=0;" edge="1" parent="R0EhZH4kIw3I4G1bYQ5x-1" source="pVFDlFmT5RPegFPA8o8f-0">
          <mxGeometry width="50" height="50" relative="1" as="geometry">
            <mxPoint x="488" y="698" as="sourcePoint" />
            <mxPoint x="250" y="335" as="targetPoint" />
          </mxGeometry>
        </mxCell>
        <mxCell id="pVFDlFmT5RPegFPA8o8f-8" value="TARGET HTML ELEMENTS" style="rounded=0;whiteSpace=wrap;html=1;fontSize=20;strokeWidth=2;" vertex="1" parent="R0EhZH4kIw3I4G1bYQ5x-1">
          <mxGeometry x="37" y="342" width="428" height="60" as="geometry" />
        </mxCell>
        <mxCell id="pVFDlFmT5RPegFPA8o8f-9" value="CHANGE THE APPEARANCE" style="rounded=0;whiteSpace=wrap;html=1;fontSize=20;strokeWidth=2;" vertex="1" parent="R0EhZH4kIw3I4G1bYQ5x-1">
          <mxGeometry x="39" y="456" width="427" height="60" as="geometry" />
        </mxCell>
        <mxCell id="pVFDlFmT5RPegFPA8o8f-12" value="" style="endArrow=classic;html=1;rounded=0;fontSize=20;strokeWidth=4;exitX=0.5;exitY=1;exitDx=0;exitDy=0;" edge="1" parent="R0EhZH4kIw3I4G1bYQ5x-1">
          <mxGeometry width="50" height="50" relative="1" as="geometry">
            <mxPoint x="249.5" y="402" as="sourcePoint" />
            <mxPoint x="250" y="454" as="targetPoint" />
          </mxGeometry>
        </mxCell>
        <mxCell id="pVFDlFmT5RPegFPA8o8f-13" value="&amp;lt;a&amp;gt;, &amp;lt;p&amp;gt;, &amp;lt;img&amp;gt;, &amp;lt;hr&amp;gt;, &amp;lt;div&amp;gt;" style="rounded=0;whiteSpace=wrap;html=1;fontSize=20;strokeWidth=2;" vertex="1" parent="R0EhZH4kIw3I4G1bYQ5x-1">
          <mxGeometry x="535" y="342" width="428" height="60" as="geometry" />
        </mxCell>
        <mxCell id="pVFDlFmT5RPegFPA8o8f-14" value="colour, size, position, visibility etc..." style="rounded=0;whiteSpace=wrap;html=1;fontSize=20;strokeWidth=2;" vertex="1" parent="R0EhZH4kIw3I4G1bYQ5x-1">
          <mxGeometry x="537" y="456" width="427" height="60" as="geometry" />
        </mxCell>
        <mxCell id="pVFDlFmT5RPegFPA8o8f-15" value="" style="endArrow=classic;html=1;rounded=0;fontSize=20;strokeWidth=4;exitX=0.5;exitY=1;exitDx=0;exitDy=0;" edge="1" parent="R0EhZH4kIw3I4G1bYQ5x-1">
          <mxGeometry width="50" height="50" relative="1" as="geometry">
            <mxPoint x="747.5" y="402" as="sourcePoint" />
            <mxPoint x="748" y="454" as="targetPoint" />
          </mxGeometry>
        </mxCell>
        <mxCell id="pVFDlFmT5RPegFPA8o8f-16" value="" style="endArrow=classic;html=1;rounded=0;fontSize=20;strokeWidth=4;exitX=0.5;exitY=1;exitDx=0;exitDy=0;" edge="1" parent="R0EhZH4kIw3I4G1bYQ5x-1">
          <mxGeometry width="50" height="50" relative="1" as="geometry">
            <mxPoint x="748" y="249" as="sourcePoint" />
            <mxPoint x="748" y="335" as="targetPoint" />
          </mxGeometry>
        </mxCell>
        <mxCell id="pVFDlFmT5RPegFPA8o8f-17" value="" style="endArrow=classic;html=1;rounded=0;fontSize=20;strokeWidth=4;exitX=1;exitY=0.5;exitDx=0;exitDy=0;entryX=0;entryY=0.5;entryDx=0;entryDy=0;" edge="1" parent="R0EhZH4kIw3I4G1bYQ5x-1" source="pVFDlFmT5RPegFPA8o8f-8" target="pVFDlFmT5RPegFPA8o8f-13">
          <mxGeometry width="50" height="50" relative="1" as="geometry">
            <mxPoint x="491" y="688" as="sourcePoint" />
            <mxPoint x="541" y="638" as="targetPoint" />
          </mxGeometry>
        </mxCell>
        <mxCell id="pVFDlFmT5RPegFPA8o8f-18" value="" style="endArrow=classic;html=1;rounded=0;fontSize=20;strokeWidth=4;exitX=1;exitY=0.5;exitDx=0;exitDy=0;entryX=0;entryY=0.5;entryDx=0;entryDy=0;" edge="1" parent="R0EhZH4kIw3I4G1bYQ5x-1">
          <mxGeometry width="50" height="50" relative="1" as="geometry">
            <mxPoint x="467" y="486" as="sourcePoint" />
            <mxPoint x="537" y="486" as="targetPoint" />
          </mxGeometry>
        </mxCell>
        <mxCell id="pVFDlFmT5RPegFPA8o8f-19" value="CSS &amp;amp; HTML" style="text;html=1;strokeColor=#d79b00;fillColor=#ffe6cc;align=center;verticalAlign=middle;whiteSpace=wrap;rounded=0;fontSize=20;" vertex="1" parent="R0EhZH4kIw3I4G1bYQ5x-1">
          <mxGeometry x="261" y="50" width="475" height="30" as="geometry" />
        </mxCell>
      </root>
    </mxGraphModel>
  </diagram>
  <diagram id="C5RBs43oDa-KdzZeNtuy" name="sass defined?">
    <mxGraphModel dx="1004" dy="1163" grid="0" gridSize="10" guides="1" tooltips="1" connect="1" arrows="1" fold="1" page="1" pageScale="1" pageWidth="827" pageHeight="1169" math="0" shadow="0">
      <root>
        <mxCell id="WIyWlLk6GJQsqaUBKTNV-0" />
        <mxCell id="WIyWlLk6GJQsqaUBKTNV-1" parent="WIyWlLk6GJQsqaUBKTNV-0" />
        <mxCell id="9i2ANKBP8XuqccW5ihnX-2" style="edgeStyle=orthogonalEdgeStyle;rounded=0;orthogonalLoop=1;jettySize=auto;html=1;exitX=0.5;exitY=1;exitDx=0;exitDy=0;strokeWidth=4;" edge="1" parent="WIyWlLk6GJQsqaUBKTNV-1" source="9i2ANKBP8XuqccW5ihnX-0">
          <mxGeometry relative="1" as="geometry">
            <mxPoint x="412" y="302" as="targetPoint" />
          </mxGeometry>
        </mxCell>
        <mxCell id="9i2ANKBP8XuqccW5ihnX-0" value="&lt;h3&gt;&lt;b&gt;&lt;font style=&quot;font-size: 29px&quot;&gt;SASS&lt;/font&gt;&lt;/b&gt;&lt;/h3&gt;" style="rounded=0;whiteSpace=wrap;html=1;strokeWidth=2;" vertex="1" parent="WIyWlLk6GJQsqaUBKTNV-1">
          <mxGeometry x="170" y="163" width="484" height="70" as="geometry" />
        </mxCell>
        <mxCell id="9i2ANKBP8XuqccW5ihnX-4" value="&lt;h3 style=&quot;font-size: 20px&quot;&gt;&lt;span style=&quot;color: rgb(51 , 51 , 51) ; font-family: &amp;#34;open sans&amp;#34; , &amp;#34;arial&amp;#34; , sans-serif ; font-weight: 400 ; background-color: rgb(255 , 255 , 255)&quot;&gt;Syntactically Awesome Style &lt;/span&gt;&lt;span style=&quot;color: rgb(51 , 51 , 51) ; font-family: &amp;#34;open sans&amp;#34; , &amp;#34;arial&amp;#34; , sans-serif ; background-color: rgb(255 , 255 , 255)&quot;&gt;S&lt;/span&gt;&lt;span style=&quot;color: rgb(51 , 51 , 51) ; font-family: &amp;#34;open sans&amp;#34; , &amp;#34;arial&amp;#34; , sans-serif ; font-weight: 400 ; background-color: rgb(255 , 255 , 255)&quot;&gt;heets&lt;/span&gt;&lt;br&gt;&lt;/h3&gt;" style="rounded=0;whiteSpace=wrap;html=1;strokeWidth=2;" vertex="1" parent="WIyWlLk6GJQsqaUBKTNV-1">
          <mxGeometry x="177" y="304" width="481" height="60" as="geometry" />
        </mxCell>
        <mxCell id="9i2ANKBP8XuqccW5ihnX-6" style="edgeStyle=orthogonalEdgeStyle;rounded=0;orthogonalLoop=1;jettySize=auto;html=1;exitX=0.5;exitY=1;exitDx=0;exitDy=0;strokeWidth=4;" edge="1" parent="WIyWlLk6GJQsqaUBKTNV-1">
          <mxGeometry relative="1" as="geometry">
            <mxPoint x="414" y="433" as="targetPoint" />
            <mxPoint x="414" y="364" as="sourcePoint" />
          </mxGeometry>
        </mxCell>
        <mxCell id="9i2ANKBP8XuqccW5ihnX-7" value="&lt;h3 style=&quot;font-size: 20px&quot;&gt;&lt;font color=&quot;#333333&quot; face=&quot;open sans, arial, sans-serif&quot;&gt;&lt;span style=&quot;font-weight: 400 ; background-color: rgb(255 , 255 , 255)&quot;&gt;What exactly does sass bring to CSS?&lt;/span&gt;&lt;/font&gt;&lt;/h3&gt;" style="rounded=0;whiteSpace=wrap;html=1;strokeWidth=2;" vertex="1" parent="WIyWlLk6GJQsqaUBKTNV-1">
          <mxGeometry x="177" y="567" width="481" height="60" as="geometry" />
        </mxCell>
        <mxCell id="83MSOQ1AdD-NGcWz8iEf-0" value="WORLD OF SASS" style="text;html=1;strokeColor=#d79b00;fillColor=#ffe6cc;align=center;verticalAlign=middle;whiteSpace=wrap;rounded=0;fontSize=20;" vertex="1" parent="WIyWlLk6GJQsqaUBKTNV-1">
          <mxGeometry x="170" y="68" width="475" height="30" as="geometry" />
        </mxCell>
        <mxCell id="83MSOQ1AdD-NGcWz8iEf-6" value="&lt;h3 style=&quot;font-size: 20px&quot;&gt;&lt;font color=&quot;#333333&quot; face=&quot;open sans, arial, sans-serif&quot;&gt;&lt;span style=&quot;font-weight: 400 ; background-color: rgb(255 , 255 , 255)&quot;&gt;Implies CSS is not enough&lt;/span&gt;&lt;/font&gt;&lt;/h3&gt;" style="rounded=0;whiteSpace=wrap;html=1;strokeWidth=2;" vertex="1" parent="WIyWlLk6GJQsqaUBKTNV-1">
          <mxGeometry x="177" y="436" width="481" height="60" as="geometry" />
        </mxCell>
        <mxCell id="83MSOQ1AdD-NGcWz8iEf-7" style="edgeStyle=orthogonalEdgeStyle;rounded=0;orthogonalLoop=1;jettySize=auto;html=1;exitX=0.5;exitY=1;exitDx=0;exitDy=0;strokeWidth=4;" edge="1" parent="WIyWlLk6GJQsqaUBKTNV-1">
          <mxGeometry relative="1" as="geometry">
            <mxPoint x="413" y="565" as="targetPoint" />
            <mxPoint x="413" y="496" as="sourcePoint" />
          </mxGeometry>
        </mxCell>
      </root>
    </mxGraphModel>
  </diagram>
</mxfile>
